M48
; DRILL file {KiCad 6.0.10-86aedd382b~118~ubuntu22.10.1} date Tue 04 Jul 2023 07:59:16 PM PDT
; FORMAT={-:-/ absolute / inch / decimal}
; #@! TF.CreationDate,2023-07-04T19:59:16-07:00
; #@! TF.GenerationSoftware,Kicad,Pcbnew,6.0.10-86aedd382b~118~ubuntu22.10.1
; #@! TF.FileFunction,Plated,1,4,PTH
FMAT,2
INCH
; #@! TA.AperFunction,Plated,PTH,ViaDrill
T1C0.0157
; #@! TA.AperFunction,Plated,PTH,ComponentDrill
T2C0.0236
; #@! TA.AperFunction,Plated,PTH,ComponentDrill
T3C0.0315
; #@! TA.AperFunction,Plated,PTH,ComponentDrill
T4C0.0394
; #@! TA.AperFunction,Plated,PTH,ComponentDrill
T5C0.0598
; #@! TA.AperFunction,Plated,PTH,ComponentDrill
T6C0.1260
%
G90
G05
T1
X1.2785Y-1.1299
X1.2805Y-1.2756
X1.3898Y-3.3579
X1.4272Y-2.0561
X1.5638Y-3.2161
X1.5638Y-3.3071
X1.5638Y-3.4311
X1.6181Y-3.5531
X1.6368Y-2.2411
X1.7083Y-3.5579
X1.7886Y-4.4031
X1.7972Y-1.4594
X1.876Y-4.5817
X1.898Y-4.1189
X1.9291Y-1.9961
X1.935Y-3.4031
X1.9656Y-3.0266
X1.9872Y-1.9409
X1.9921Y-1.8445
X2.0226Y-3.1526
X2.0335Y-1.4587
X2.1043Y-2.6024
X2.1073Y-3.9311
X2.1447Y-1.7815
X2.1732Y-2.2008
X2.2075Y-3.1555
X2.2096Y-1.9862
X2.2303Y-2.5699
X2.2323Y-2.4951
X2.2756Y-2.5709
X2.2795Y-4.0571
X2.2815Y-4.9616
X2.3177Y-3.0957
X2.3472Y-3.3654
X2.3543Y-2.4567
X2.3543Y-4.4705
X2.424Y-3.1118
X2.4646Y-1.5689
X2.6319Y-4.9705
X2.7244Y-1.8701
X2.7343Y-4.9705
X2.8012Y-1.8661
X2.8366Y-4.9705
X2.9173Y-1.2057
X2.9272Y-3.2155
X2.9331Y-4.9705
X3.0335Y-4.9705
X3.0659Y-1.3888
X3.1142Y-3.4419
X3.1339Y-4.9705
X3.2124Y-2.8268
X3.2343Y-4.9705
X3.2372Y-3.1644
X3.2559Y-1.5
X3.2913Y-1.5295
X3.312Y-2.5837
X3.3327Y-4.9705
X3.3356Y-1.4173
X3.3755Y-3.4454
X3.3957Y-3.5906
X3.3986Y-1.2185
X3.4026Y-1.7776
X3.4459Y-1.3661
X3.4813Y-3.2598
X3.6801Y-4.9498
X3.7067Y-3.3169
X3.7972Y-2.5925
X3.811Y-3.2372
X3.8799Y-1.8297
X3.9213Y-3.2343
X3.9281Y-1.8583
X3.9488Y-2.8012
X3.9627Y-1.8868
X3.9911Y-1.5207
X4.0063Y-3.9104
X4.0541Y-3.9104
X4.1102Y-2.9094
X4.1476Y-3.5108
X4.2608Y-1.4331
X4.3031Y-3.128
X4.3238Y-2.4862
X4.4504Y-4.126
X4.4528Y-4.9518
X4.4718Y-1.9201
X4.4744Y-2.339
X4.5551Y-2.9646
X4.6575Y-1.0797
X4.753Y-2.1801
X4.7589Y-4.6821
X4.8185Y-1.5154
X4.872Y-2.9045
X4.872Y-3.2028
X4.873Y-3.5108
X5.0384Y-4.9518
X5.0394Y-4.4783
X5.0807Y-1.1555
X5.0866Y-1.5148
T3
X1.2768Y-2.3955
X1.2768Y-2.4955
X1.2768Y-2.5955
X1.2768Y-2.6955
X1.2768Y-2.7955
X1.2768Y-2.8955
X1.2768Y-2.9955
X1.2768Y-3.0955
X1.5768Y-2.3955
X1.5768Y-2.4955
X1.5768Y-2.5955
X1.5768Y-2.6955
X1.5768Y-2.7955
X1.5768Y-2.8955
X1.5768Y-2.9955
X1.5768Y-3.0955
X1.689Y-3.6634
X1.689Y-3.7634
X1.689Y-3.8634
X1.689Y-3.9634
X1.689Y-4.0634
X1.689Y-4.1634
X1.689Y-4.2634
X1.7913Y-1.0978
X1.7913Y-1.6978
X1.8913Y-1.0978
X1.8913Y-1.6978
X1.9396Y-2.9321
X1.9396Y-3.5321
X1.989Y-3.6634
X1.989Y-3.7634
X1.989Y-3.8634
X1.989Y-3.9634
X1.989Y-4.0634
X1.989Y-4.1634
X1.989Y-4.2634
X1.9913Y-1.0978
X1.9913Y-1.6978
X2.0396Y-2.9321
X2.0396Y-3.5321
X2.0778Y-2.09
X2.0778Y-2.69
X2.0913Y-1.0978
X2.0913Y-1.6978
X2.1335Y-4.2087
X2.1335Y-4.8087
X2.1396Y-2.9321
X2.1396Y-3.5321
X2.1778Y-2.09
X2.1778Y-2.69
X2.1913Y-1.0978
X2.1913Y-1.6978
X2.2335Y-4.2087
X2.2335Y-4.8087
X2.2396Y-2.9321
X2.2396Y-3.5321
X2.2439Y-1.8533
X2.2778Y-2.09
X2.2778Y-2.69
X2.2913Y-1.0978
X2.2913Y-1.6978
X2.3335Y-4.2087
X2.3335Y-4.8087
X2.3396Y-2.9321
X2.3396Y-3.5321
X2.3778Y-2.09
X2.3778Y-2.69
X2.3913Y-1.0978
X2.3913Y-1.6978
X2.4335Y-4.2087
X2.4335Y-4.8087
X2.436Y-1.8533
X2.4396Y-2.9321
X2.4396Y-3.5321
X2.4778Y-2.09
X2.4778Y-2.69
X2.4913Y-1.0978
X2.4913Y-1.6978
X2.5335Y-4.2087
X2.5335Y-4.8087
X2.5396Y-2.9321
X2.5396Y-3.5321
X2.5778Y-2.09
X2.5778Y-2.69
X2.5913Y-1.0978
X2.5913Y-1.6978
X2.6335Y-4.2087
X2.6335Y-4.8087
X2.6396Y-2.9321
X2.6396Y-3.5321
X2.6778Y-2.09
X2.6778Y-2.69
X2.6913Y-1.0978
X2.6913Y-1.6978
X2.7335Y-4.2087
X2.7335Y-4.8087
X2.7396Y-2.9321
X2.7396Y-3.5321
X2.7778Y-2.09
X2.7778Y-2.69
X2.7913Y-1.0978
X2.7913Y-1.6978
X2.8335Y-4.2087
X2.8335Y-4.8087
X2.8396Y-2.9321
X2.8396Y-3.5321
X2.8778Y-2.09
X2.8778Y-2.69
X2.8913Y-1.0978
X2.8913Y-1.6978
X2.9335Y-4.2087
X2.9335Y-4.8087
X2.9396Y-2.9321
X2.9396Y-3.5321
X2.9778Y-2.09
X2.9778Y-2.69
X2.9913Y-1.0978
X2.9913Y-1.6978
X3.0335Y-4.2087
X3.0335Y-4.8087
X3.0396Y-2.9321
X3.0396Y-3.5321
X3.0778Y-2.09
X3.0778Y-2.69
X3.0913Y-1.0978
X3.0913Y-1.6978
X3.1335Y-4.2087
X3.1335Y-4.8087
X3.1396Y-2.9321
X3.1396Y-3.5321
X3.1778Y-2.09
X3.1778Y-2.69
X3.2335Y-4.2087
X3.2335Y-4.8087
X3.2396Y-2.9321
X3.2396Y-3.5321
X3.2778Y-2.09
X3.2778Y-2.69
X3.3335Y-4.2087
X3.3335Y-4.8087
X3.3396Y-2.9321
X3.3396Y-3.5321
X3.3778Y-2.09
X3.3778Y-2.69
X3.4335Y-4.2087
X3.4335Y-4.8087
X3.4396Y-2.9321
X3.4396Y-3.5321
X3.5335Y-4.2087
X3.5335Y-4.8087
X3.5396Y-2.9321
X3.5396Y-3.5321
X3.5569Y-1.9567
X3.5569Y-2.2567
X3.5827Y-1.1618
X3.5827Y-1.7618
X3.6075Y-2.4583
X3.6075Y-2.7583
X3.6335Y-4.2087
X3.6335Y-4.8087
X3.6396Y-2.9321
X3.6396Y-3.5321
X3.6569Y-1.9567
X3.6569Y-2.2567
X3.6827Y-1.1618
X3.6827Y-1.7618
X3.7335Y-4.2087
X3.7335Y-4.8087
X3.7396Y-2.9321
X3.7396Y-3.5321
X3.7569Y-1.9567
X3.7569Y-2.2567
X3.7827Y-1.1618
X3.7827Y-1.7618
X3.8335Y-4.2087
X3.8335Y-4.8087
X3.8396Y-2.9321
X3.8396Y-3.5321
X3.8569Y-1.9567
X3.8569Y-2.2567
X3.8827Y-1.1618
X3.8827Y-1.7618
X3.9335Y-4.2087
X3.9335Y-4.8087
X3.9569Y-1.9567
X3.9569Y-2.2567
X3.9827Y-1.1618
X3.9827Y-1.7618
X4.0335Y-4.2087
X4.0335Y-4.8087
X4.0569Y-1.9567
X4.0569Y-2.2567
X4.0827Y-1.1618
X4.0827Y-1.7618
X4.1569Y-1.9567
X4.1569Y-2.2567
X4.1827Y-1.1618
X4.1827Y-1.7618
X4.2075Y-2.4583
X4.2075Y-2.7583
X4.2569Y-1.9567
X4.2569Y-2.2567
X4.2827Y-1.1618
X4.2827Y-1.7618
X4.3827Y-1.1618
X4.3827Y-1.7618
X4.4049Y-1.9632
X4.4049Y-2.0632
X4.4049Y-2.1632
X4.4049Y-2.2632
X4.4049Y-2.3632
X4.4049Y-2.4632
X4.4049Y-2.5632
X4.4049Y-2.6632
X4.4049Y-2.7632
X4.4049Y-2.8632
X4.4049Y-2.9632
X4.4049Y-3.0632
X4.4049Y-3.1632
X4.4049Y-3.2632
X4.4049Y-3.3632
X4.4049Y-3.4632
X4.4049Y-3.5632
X4.4049Y-3.6632
X4.4049Y-3.7632
X4.4049Y-3.8632
X4.4827Y-1.1618
X4.4827Y-1.7618
X4.5827Y-1.1618
X4.5827Y-1.7618
X4.6827Y-1.1618
X4.6827Y-1.7618
X4.7827Y-1.1618
X4.7827Y-1.7618
X4.8827Y-1.1618
X4.8827Y-1.7618
X5.0049Y-1.9632
X5.0049Y-2.0632
X5.0049Y-2.1632
X5.0049Y-2.2632
X5.0049Y-2.3632
X5.0049Y-2.4632
X5.0049Y-2.5632
X5.0049Y-2.6632
X5.0049Y-2.7632
X5.0049Y-2.8632
X5.0049Y-2.9632
X5.0049Y-3.0632
X5.0049Y-3.1632
X5.0049Y-3.2632
X5.0049Y-3.3632
X5.0049Y-3.4632
X5.0049Y-3.5632
X5.0049Y-3.6632
X5.0049Y-3.7632
X5.0049Y-3.8632
T4
X1.4169Y-1.51
X1.4169Y-1.6191
X1.4169Y-1.7281
X1.4169Y-1.8372
X1.5288Y-1.4555
X1.5288Y-1.5646
X1.5288Y-1.6736
X1.5288Y-1.7827
X1.5288Y-1.8917
X2.3858Y-3.9537
X2.3867Y-3.7804
X2.4858Y-3.9537
X2.4867Y-3.7804
X2.5858Y-3.9537
X2.5867Y-3.7804
X2.6858Y-3.9537
X2.6867Y-3.7804
X2.7858Y-3.9537
X2.7867Y-3.7804
X2.8858Y-3.9537
X2.8867Y-3.7804
X2.9858Y-3.9537
X2.9867Y-3.7804
X3.0858Y-3.9537
X3.0867Y-3.7804
X3.1858Y-3.9537
X3.1867Y-3.7804
X3.2766Y-2.8051
X3.2858Y-3.9537
X3.2867Y-3.7804
X3.3766Y-2.8051
X3.3858Y-3.9537
X3.3867Y-3.7804
X3.4858Y-3.9537
X3.4867Y-3.7804
X3.5858Y-3.9537
X3.5867Y-3.7804
X3.6858Y-3.9537
X3.6867Y-3.7804
X3.7858Y-3.9537
X3.7867Y-3.7804
X3.8858Y-3.9537
X3.8867Y-3.7804
X4.0453Y-3.074
X4.0453Y-3.174
X4.0453Y-3.274
X4.0453Y-3.374
X4.2106Y-3.074
X4.2106Y-3.174
X4.2106Y-3.274
X4.2106Y-3.374
X5.127Y-2.0531
X5.127Y-2.1531
X5.127Y-2.2531
X5.127Y-2.3531
X5.127Y-2.4531
X5.127Y-2.5531
X5.127Y-2.6531
X5.127Y-2.7531
X5.127Y-2.8531
X5.127Y-2.9531
X5.127Y-3.0531
X5.127Y-3.1531
X5.127Y-3.2531
X5.127Y-3.3531
X5.127Y-3.4531
X5.127Y-3.5531
T5
X1.3583Y-3.9988
X1.3583Y-4.1988
T6
X1.5169Y-1.1815
X1.5169Y-2.1657
T2
G00X1.6606Y-4.7567
M15
G01X1.6606Y-4.8
M16
G05
G00X1.6606Y-4.9311
M15
G01X1.6606Y-4.9547
M16
G05
G00X2.0008Y-4.7567
M15
G01X2.0008Y-4.8
M16
G05
G00X2.0008Y-4.9311
M15
G01X2.0008Y-4.9547
M16
G05
T4
G00X1.3465Y-4.4902
M15
G01X1.4488Y-4.4902
M16
G05
G00X1.3543Y-4.7382
M15
G01X1.4409Y-4.7382
M16
G05
G00X1.5866Y-4.561
M15
G01X1.5866Y-4.6476
M16
G05
T0
M30
